<?xml version="1.0" encoding="utf-8"?>
<svg id="ea61258a-e793-48f7-8624-3c5ca462ffd9" data-name="Layer 1" xmlns="http://www.w3.org/2000/svg" width="882.34637" height="778.99856" viewBox="0 0 882.34637 778.99856">
  <title>remotely</title>
  <path d="M 438.084 25.897 L 441.554 20.535 C 440.525 17.692 439.336 14.91 437.994 12.202 L 435.751 14.014 L 437.527 11.269 C 435.834 7.936 434.502 5.837 434.502 5.837 C 434.502 5.837 427.544 16.802 425.219 28.411 L 429.671 35.292 L 424.743 31.311 C 424.567 32.663 424.477 34.026 424.472 35.389 C 424.472 49.139 428.963 60.285 434.502 60.285 C 440.042 60.285 444.532 49.139 444.532 35.389 C 444.428 31.015 443.654 26.682 442.238 22.542 L 438.084 25.897 Z" fill="#e6e6e6"/>
  <path d="M 462.642 37.817 L 468.887 36.479 C 470.169 33.741 471.296 30.934 472.262 28.07 L 469.394 27.765 L 472.592 27.079 C 473.751 23.526 474.294 21.099 474.294 21.099 C 474.294 21.099 461.62 23.932 451.767 30.498 L 450.05 38.511 L 449.38 32.211 C 448.299 33.043 447.272 33.943 446.305 34.904 C 436.582 44.626 431.876 55.683 435.793 59.6 C 439.71 63.517 450.767 58.811 460.489 49.088 C 463.509 45.922 466.025 42.311 467.951 38.381 L 462.642 37.817 Z" fill="#e6e6e6"/>
  <path d="M 464.923 91.021 C 450.442 91.947 434.663 90.967 417.877 91.021 L 417.877 52.589 C 432.668 54.891 448.442 54.655 464.923 52.589 L 464.923 91.021 Z" fill="#e6e6e6"/>
  <path d="M 568.524 120.988 L 570.787 117.491 C 570.116 115.638 569.341 113.824 568.465 112.057 L 567.002 113.239 L 568.161 111.449 C 567.057 109.275 566.188 107.906 566.188 107.906 C 563.4 112.461 561.357 117.43 560.134 122.628 L 563.038 127.115 L 559.823 124.519 C 559.709 125.401 559.65 126.289 559.647 127.179 C 559.647 136.145 562.575 143.414 566.188 143.414 C 569.8 143.414 572.729 136.145 572.729 127.179 C 572.661 124.326 572.156 121.5 571.233 118.8 L 568.524 120.988 Z" fill="#e6e6e6"/>
  <path d="M 584.539 128.762 L 588.612 127.889 C 589.448 126.104 590.183 124.273 590.813 122.405 L 588.942 122.206 L 591.028 121.759 C 591.784 119.442 592.138 117.86 592.138 117.86 C 586.946 119.109 581.987 121.178 577.447 123.989 L 576.327 129.215 L 575.89 125.106 C 575.185 125.649 574.516 126.235 573.885 126.862 C 567.544 133.202 564.475 140.413 567.03 142.968 C 569.584 145.522 576.795 142.453 583.135 136.112 C 585.104 134.047 586.746 131.692 588.001 129.13 L 584.539 128.762 Z" fill="#e6e6e6"/>
  <path d="M 586.027 163.458 C 576.583 164.062 566.293 163.423 555.346 163.458 L 555.346 138.395 C 565.523 139.821 575.849 139.821 586.027 138.395 L 586.027 163.458 Z" fill="#e6e6e6"/>
  <path d="M 580.195 237.735 C 571.856 238.268 562.77 237.704 553.104 237.735 L 553.104 215.604 C 562.091 216.863 571.209 216.863 580.195 215.604 L 580.195 237.735 Z" fill="#e6e6e6"/>
  <rect x="263.231" y="88.318" width="364.547" height="10.183" fill="#e6e6e6"/>
  <rect x="263.231" y="160.616" width="364.547" height="10.183" fill="#e6e6e6"/>
  <rect x="263.231" y="232.915" width="364.547" height="10.183" fill="#e6e6e6"/>
  <circle cx="566.68" cy="203.384" r="20.366" fill="#e6e6e6"/>
  <circle cx="566.68" cy="203.384" r="16.293" fill="#fff"/>
  <circle cx="566.68" cy="203.384" r="4.073" fill="#e6e6e6"/>
  <rect x="634.876" y="249.902" width="2.037" height="16.293" transform="matrix(0, 1, -1, 0, 830.838601, -432.510151)" fill="#e6e6e6"/>
  <rect x="-567.7" y="-205.42" width="2.037" height="16.293" transform="matrix(-1, 0, 0, -1, 0, 0)" fill="#e6e6e6"/>
  <rect x="435.448" y="110.941" width="13.475" height="53.339" fill="#e6e6e6"/>
  <rect x="435.448" y="119.363" width="13.475" height="6.176" fill="#ccc"/>
  <rect x="435.448" y="146.313" width="13.475" height="6.176" fill="#ccc"/>
  <rect x="414.674" y="110.941" width="13.475" height="53.339" fill="#e6e6e6"/>
  <rect x="414.674" y="119.363" width="13.475" height="6.176" fill="#ccc"/>
  <rect x="414.674" y="146.313" width="13.475" height="6.176" fill="#ccc"/>
  <rect x="522.695" y="165.605" width="13.475" height="53.339" transform="matrix(0.89618, -0.443691, 0.443691, 0.89618, -93.44914, 200.202204)" fill="#e6e6e6"/>
  <rect x="515.969" y="175.601" width="13.475" height="6.176" transform="matrix(0.89618, -0.443691, 0.443691, 0.89618, -88.119657, 195.807429)" fill="#ccc"/>
  <rect x="527.927" y="199.753" width="13.475" height="6.176" transform="matrix(0.89618, -0.443691, 0.443691, 0.89618, -97.594327, 203.620356)" fill="#ccc"/>
  <rect x="315.29" y="183.239" width="13.475" height="53.339" fill="#e6e6e6"/>
  <rect x="315.29" y="191.661" width="13.475" height="6.176" fill="#ccc"/>
  <rect x="315.29" y="218.611" width="13.475" height="6.176" fill="#ccc"/>
  <rect x="294.516" y="183.239" width="13.475" height="53.339" fill="#e6e6e6"/>
  <rect x="294.516" y="191.661" width="13.475" height="6.176" fill="#ccc"/>
  <rect x="294.516" y="218.611" width="13.475" height="6.176" fill="#ccc"/>
  <rect x="402.537" y="237.903" width="13.475" height="53.339" transform="matrix(0.89618, -0.443691, 0.443691, 0.89618, -138.002102, 154.395244)" fill="#e6e6e6"/>
  <rect x="395.811" y="247.899" width="13.475" height="6.176" transform="matrix(0.89618, -0.443691, 0.443691, 0.89618, -132.672604, 150.000484)" fill="#ccc"/>
  <rect x="407.769" y="272.051" width="13.475" height="6.176" transform="matrix(0.89618, -0.443691, 0.443691, 0.89618, -142.147259, 157.813411)" fill="#ccc"/>
  <rect x="441.557" y="183.239" width="13.475" height="53.339" fill="#e6e6e6"/>
  <rect x="441.557" y="191.661" width="13.475" height="6.176" fill="#ccc"/>
  <rect x="441.557" y="218.611" width="13.475" height="6.176" fill="#ccc"/>
  <rect x="420.783" y="183.239" width="13.475" height="53.339" fill="#e6e6e6"/>
  <rect x="420.783" y="191.661" width="13.475" height="6.176" fill="#ccc"/>
  <rect x="420.783" y="218.611" width="13.475" height="6.176" fill="#ccc"/>
  <rect x="528.805" y="237.903" width="13.475" height="53.339" transform="matrix(0.89618, -0.443691, 0.443691, 0.89618, -124.892972, 210.419062)" fill="#e6e6e6"/>
  <rect x="522.079" y="247.899" width="13.475" height="6.176" transform="matrix(0.89618, -0.443691, 0.443691, 0.89618, -119.563458, 206.024287)" fill="#ccc"/>
  <rect x="534.036" y="272.051" width="13.475" height="6.176" transform="matrix(0.89618, -0.443691, 0.443691, 0.89618, -129.038128, 213.837214)" fill="#ccc"/>
  <rect x="545.71" y="38.482" width="53.556" height="53.556" fill="#e6e6e6"/>
  <rect x="556.421" y="49.194" width="32.134" height="32.134" fill="#ccc"/>
  <polygon points="565.722 59.98 572.536 71.781 579.349 83.582 565.722 83.582 552.095 83.582 558.909 71.781 565.722 59.98" fill="#e6e6e6"/>
  <polygon points="577.561 62.235 584.375 74.036 591.188 85.837 577.561 85.837 563.934 85.837 570.748 74.036 577.561 62.235" fill="#e6e6e6"/>
  <circle cx="582.353" cy="54.831" r="3.946" fill="#e6e6e6"/>
  <rect x="274.845" y="38.482" width="53.556" height="53.556" fill="#e6e6e6"/>
  <rect x="285.556" y="49.194" width="32.134" height="32.134" fill="#ccc"/>
  <polygon points="294.858 59.98 301.671 71.781 308.485 83.582 294.858 83.582 281.231 83.582 288.044 71.781 294.858 59.98" fill="#e6e6e6"/>
  <polygon points="306.697 62.235 313.51 74.036 320.323 85.837 306.697 85.837 293.07 85.837 299.883 74.036 306.697 62.235" fill="#e6e6e6"/>
  <circle cx="311.489" cy="54.831" r="3.946" fill="#e6e6e6"/>
  <path d="M230.32422,458.34544l3.46953-5.362a80.3871,80.3871,0,0,0-3.55953-8.33251l-2.24351,1.812,1.77642-2.74534c-1.69294-3.3325-3.02505-5.43215-3.02505-5.43215s-6.95827,10.96511-9.283,22.57466l4.45222,6.88072-4.92881-3.981a32.52438,32.52438,0,0,0-.27041,4.0782c0,13.74959,4.49057,24.89583,10.03,24.89583s10.03-11.14624,10.03-24.89583a42.818,42.818,0,0,0-2.29454-12.84723Z" transform="translate(-158.82681 -60.50072)" fill="#008aff"/>
  <path d="M254.8821,470.26556l6.24485-1.33818a80.386,80.386,0,0,0,3.375-8.40894l-2.86772-.30508,3.19737-.68514c1.15934-3.55352,1.70208-5.98014,1.70208-5.98014s-12.67374,2.83326-22.52676,9.39864l-1.71721,8.01359-.67022-6.30016a32.52414,32.52414,0,0,0-3.07493,2.69252c-9.72243,9.72242-14.4287,20.77932-10.51175,24.69627s14.97385-.78932,24.69628-10.51174a42.818,42.818,0,0,0,7.46188-10.70686Z" transform="translate(-158.82681 -60.50072)" fill="#008aff"/>
  <path d="M257.16309,523.46949c-14.48118.92631-30.25994-.05387-47.04589,0V485.03764c14.79122,2.30262,30.56472,2.06615,47.04589,0Z" transform="translate(-158.82681 -60.50072)" fill="#3f3d56"/>
  <rect x="500.99759" y="475.03125" width="195.51126" height="253.55366" fill="#e6e6e6"/>
  <rect x="92.66419" y="488.269" width="10.18288" height="240.31592" fill="#e6e6e6"/>
  <rect y="457.72036" width="696.50885" height="20.36576" fill="#e6e6e6"/>
  <rect x="87.57275" y="478.08612" width="20.36576" height="20.36576" fill="#e6e6e6"/>
  <polygon points="614.155 489.796 613.009 494.379 584.497 494.379 582.779 489.796 510.162 489.796 510.162 536.638 687.344 536.638 687.344 489.796 614.155 489.796" fill="#3f3d56"/>
  <polygon points="614.155 548.857 613.009 553.439 584.497 553.439 582.779 548.857 510.162 548.857 510.162 595.698 687.344 595.698 687.344 548.857 614.155 548.857" fill="#3f3d56"/>
  <polygon points="614.155 607.918 613.009 612.5 584.497 612.5 582.779 607.918 510.162 607.918 510.162 654.759 687.344 654.759 687.344 607.918 614.155 607.918" fill="#3f3d56"/>
  <polygon points="614.155 666.979 613.009 671.561 584.497 671.561 582.779 666.979 510.162 666.979 510.162 713.82 687.344 713.82 687.344 666.979 614.155 666.979" fill="#3f3d56"/>
  <polygon points="377.785 454.665 317.706 454.665 319.742 428.19 375.748 428.19 377.785 454.665" fill="#e6e6e6"/>
  <rect x="314.65093" y="451.61063" width="67.20699" height="6.10973" fill="#e6e6e6"/>
  <path d="M621.63862,318.12753H392.01472a6.10973,6.10973,0,0,0-6.10973,6.10973V464.25183H627.74834V324.23726A6.10973,6.10973,0,0,0,621.63862,318.12753Z" transform="translate(-158.82681 -60.50072)" fill="#3f3d56"/>
  <path d="M385.905,464.25183V487.1633a6.10973,6.10973,0,0,0,6.10973,6.10973h229.6239a6.10973,6.10973,0,0,0,6.10972-6.10973V464.25183Z" transform="translate(-158.82681 -60.50072)" fill="#e6e6e6"/>
  <rect x="239.29763" y="270.35541" width="217.91359" height="122.19453" fill="#fff"/>
  <circle cx="348.25442" cy="418.00714" r="6.10973" fill="#3f3d56"/>
  <path d="M1023.86229,787.5582c-22.25416,1.42352-46.50239-.08278-72.29843,0V728.49751c22.73061,3.53859,46.97076,3.17519,72.29843,0Z" transform="translate(-158.82681 -60.50072)" fill="#3f3d56"/>
  <polygon points="831.432 673.3 825.322 673.3 827.359 553.949 829.395 553.949 831.432 673.3" fill="#3f3d56"/>
  <polygon points="858.926 674.107 852.816 674.107 854.853 554.755 856.889 554.755 858.926 674.107" fill="#3f3d56"/>
  <polygon points="806.993 674.107 800.883 674.107 802.92 554.755 804.956 554.755 806.993 674.107" fill="#3f3d56"/>
  <path d="M995.35023,538.07769l9.8628-15.24249a228.51376,228.51376,0,0,0-10.11861-23.68669l-6.3776,5.1511,5.0498-7.80416c-4.81251-9.47323-8.59926-15.44187-8.59926-15.44187s-19.78017,31.17033-26.3886,64.17264L971.435,564.78593l-14.011-11.31664a92.45186,92.45186,0,0,0-.76869,11.593c0,39.08574,12.76527,70.771,28.51206,70.771s28.512-31.68526,28.512-70.771c0-12.117-2.74124-24.794-6.52266-36.52063Z" transform="translate(-158.82681 -60.50072)" fill="#e6e6e6"/>
  <path d="M1022.844,540.11427l9.8628-15.2425a228.5147,228.5147,0,0,0-10.11861-23.68669l-6.3776,5.15111,5.0498-7.80416c-4.81251-9.47323-8.59926-15.44188-8.59926-15.44188s-19.78017,31.17034-26.3886,64.17264l12.65626,19.55972-14.011-11.31664a92.45186,92.45186,0,0,0-.76869,11.593c0,39.08574,12.76527,70.771,28.51206,70.771s28.51206-31.68526,28.51206-70.771c0-12.117-2.74125-24.794-6.52267-36.52064Z" transform="translate(-158.82681 -60.50072)" fill="#008aff"/>
  <path d="M970.91133,540.11427l9.8628-15.2425a228.51678,228.51678,0,0,0-10.11862-23.68669l-6.3776,5.15111,5.0498-7.80416c-4.8125-9.47323-8.59926-15.44188-8.59926-15.44188s-19.78017,31.17034-26.3886,64.17264l12.65626,19.55972-14.011-11.31664a92.45186,92.45186,0,0,0-.76869,11.593c0,39.08574,12.76527,70.771,28.51206,70.771s28.51206-31.68526,28.51206-70.771c0-12.117-2.74125-24.794-6.52266-36.52064Z" transform="translate(-158.82681 -60.50072)" fill="#008aff"/>
  <rect x="309.96395" y="304.84783" width="58.75616" height="3.37283" fill="#3f3d56"/>
  <rect x="309.96395" y="317.15098" width="90.7323" height="3.37283" fill="#008aff"/>
  <rect x="309.96395" y="328.74233" width="73.94482" height="3.37283" fill="#008aff"/>
  <rect x="309.96395" y="340.28988" width="43.16779" height="3.37283" fill="#3f3d56"/>
  <rect x="309.96395" y="351.83743" width="65.15139" height="3.37283" fill="#3f3d56"/>
  <rect x="283.18393" y="303.64873" width="7.19463" height="7.19463" fill="#3f3d56"/>
  <rect x="283.18393" y="315.24008" width="7.19463" height="7.19463" fill="#008aff"/>
  <rect x="283.18393" y="326.83143" width="7.19463" height="7.19463" fill="#008aff"/>
  <rect x="283.18393" y="338.42278" width="7.19463" height="7.19463" fill="#3f3d56"/>
  <rect x="283.18393" y="350.01413" width="7.19463" height="7.19463" fill="#3f3d56"/>
  <path d="M605.94216,358.96335H575.109a107.84044,107.84044,0,0,1,0-36.76267h30.8332A66.14839,66.14839,0,0,0,605.94216,358.96335Z" transform="translate(-158.82681 -60.50072)" fill="#008aff"/>
  <path d="M381.59071,432.64519l-12.68484-3.092a32.65651,32.65651,0,0,1-32.05067-39.12409v0a42.68467,42.68467,0,0,1,42.631-42.73825h.00008a42.68468,42.68468,0,0,1,42.73825,42.631v.00006C429.41674,415.35014,406.89108,438.81238,381.59071,432.64519Z" transform="translate(-158.82681 -60.50072)" fill="#2f2e41"/>
  <circle cx="236.61974" cy="345.24334" r="31.36369" fill="#ffb8b8"/>
  <path d="M374.992,422.10773s-9.54547,32.72733-15,35.4546,43.63644,6.8182,43.63644,6.8182-1.36364-31.36369,1.36364-34.091S374.992,422.10773,374.992,422.10773Z" transform="translate(-158.82681 -60.50072)" fill="#ffb8b8"/>
  <path d="M424.083,623.92626s61.36374-5.45456,69.54557,15S488.174,780.74471,488.174,780.74471H462.26485V681.19908s-110.4725-31.40179-110.4725-42.31089S424.083,623.92626,424.083,623.92626Z" transform="translate(-158.82681 -60.50072)" fill="#2f2e41"/>
  <path d="M484.08307,775.29015l13.63639,5.45456s16.36366-1.36364,9.54547,10.90911A27.00366,27.00366,0,0,1,488.174,805.29021s-25.90914,9.54547-27.27278,0,6.8182-28.63642,6.8182-28.63642Z" transform="translate(-158.82681 -60.50072)" fill="#2f2e41"/>
  <path d="M389.992,623.92626s61.36374-5.45456,69.54557,15S454.083,780.74471,454.083,780.74471H428.17388V681.19908s-78.4181-18.164-78.4181-29.07315c0-5.12492-5.34348-31.171,4.07315-36.65836C364.45693,609.27432,389.992,623.92626,389.992,623.92626Z" transform="translate(-158.82681 -60.50072)" fill="#2f2e41"/>
  <path d="M449.9921,775.29015l13.63639,5.45456s16.36367-1.36364,9.54547,10.90911A27.00366,27.00366,0,0,1,454.083,805.29021s-25.90914,9.54547-27.27277,0,6.81819-28.63642,6.81819-28.63642Z" transform="translate(-158.82681 -60.50072)" fill="#2f2e41"/>
  <path d="M361.35559,453.47142l40.98018,4.45436a30.18224,30.18224,0,0,1,26.26893,23.76669L444.53755,557.108s5.45455,75.00013-5.45456,79.091-25.90913-16.36366-46.36371-13.63638-47.04554,8.86365-47.04554,8.86365S341.451,497.179,340.901,486.19875C339.80142,464.24769,361.35559,453.47142,361.35559,453.47142Z" transform="translate(-158.82681 -60.50072)" fill="#575a89"/>
  <path d="M458.42733,627.82255l16.82365,9.9078s30.18279-4.33064,29.24058,6.278-33.8887,8.55886-33.8887,8.55886l-20.275-12.493Z" transform="translate(-158.82681 -60.50072)" fill="#ffb8b8"/>
  <circle cx="175.7429" cy="299.47504" r="20.25966" fill="#2f2e41"/>
  <path d="M353.26293,349.08471a20.2502,20.2502,0,0,0-24.24652-19.836,20.25023,20.25023,0,1,1,12.63025,38.16451A20.243,20.243,0,0,0,353.26293,349.08471Z" transform="translate(-158.82681 -60.50072)" fill="#2f2e41"/>
  <path d="M370.64347,360.57471l27.313-5.02907,21.00491,13.16494a31.86273,31.86273,0,0,1,14.6776,31.09515l-21.0372-5.33225-4.71074-11.81208-5.61047,9.196-29.33406,37.75029-16.46978-10.48815-14.68292-23.00931Z" transform="translate(-158.82681 -60.50072)" fill="#2f2e41"/>
  <path d="M393.13569,465.07123l13.63639-6.8182s28.63641,4.09092,34.091,23.18186,30,151.3639,30,151.3639L447.68124,643.7079l-32.72733-80.45468Z" transform="translate(-158.82681 -60.50072)" fill="#575a89"/>
  <polygon points="245.917 458.23 259.565 511.205 283.767 570.701 282.928 572.761 254.063 512.199 245.917 458.23" opacity="0.2"/>
  <polygon points="144.084 750.379 139.271 748.721 185.896 610.231 192.636 612.553 144.084 750.379" fill="#3f3d56"/>
  <polygon points="322.291 750.379 327.105 748.721 280.479 610.231 273.74 612.553 322.291 750.379" fill="#3f3d56"/>
  <polygon points="223.77 778.981 228.861 778.999 230.443 617.107 223.315 617.082 223.77 778.981" fill="#3f3d56"/>
  <path d="M291.12655,589.35709l13.96582,56.44513a44.82625,44.82625,0,0,0,32.64214,32.72145l.00008,0a238.26046,238.26046,0,0,0,118.54694-.7638l20.8512-5.49922c12.11558-3.19531,21.22652-13.60111,22.0886-26.10127a25.68469,25.68469,0,0,0-2.323-12.8718q-.12219-.25966-.24559-.51476a34.06444,34.06444,0,0,0-29.59817-19.13845l-22.08892-.71254L364.521,577.28177s-27.66705-14.0531-50.4117-15.62629C299.08852,560.61654,287.51024,574.74121,291.12655,589.35709Z" transform="translate(-158.82681 -60.50072)" fill="#008aff"/>
  <rect x="543.25654" y="351.30929" width="79.42645" height="107.93851" fill="#e6e6e6"/>
  <rect x="552.42113" y="363.76373" width="61.09727" height="83.02962" fill="#fff"/>
  <rect x="576.46734" y="385.49176" width="29.60198" height="3.37283" fill="#3f3d56"/>
  <rect x="559.8702" y="383.62466" width="7.19463" height="7.19463" fill="#3f3d56"/>
  <rect x="576.46734" y="399.74779" width="29.60198" height="3.37283" fill="#3f3d56"/>
  <rect x="559.8702" y="397.88069" width="7.19463" height="7.19463" fill="#3f3d56"/>
  <rect x="576.46734" y="414.00382" width="29.60198" height="3.37283" fill="#3f3d56"/>
  <rect x="559.8702" y="412.13672" width="7.19463" height="7.19463" fill="#3f3d56"/>
  <rect x="579.9149" y="354.36415" width="6.10973" height="6.10973" rx="3.05486" fill="#3f3d56"/>
</svg>